#!OML:ASF E:\Style4\Style4.ASF
:FULLY-SPECIFIED
:DEGREES
1226
root -0.703321 17.5569 -1.62302 7.27751 1.4316 1.04966
lowerback 15.0469 5.08012 0.19138
upperback 13.8668 6.77444 -1.76436
thorax 6.76934 3.54197 -2.56576
lowerneck 4.86477 -9.07589 -7.12803
upperneck -5.32132 -11.9708 14.0767
head -1.04438 -6.28699 5.52945
rclavicle 5.56597e-014 -3.22031e-014
rhumerus 67.9185 17.632 2.12649
rradius 93.6775
rwrist -79.9531
rhand -31.6618 8.7141
rfingers 7.12502
rthumb -4.92213 -21.2087
lclavicle 5.56597e-014 -3.22031e-014
lhumerus 35.5957 -22.836 46.7855
lradius 105.971
lwrist 83.0695
lhand -35.9662 43.2867
lfingers 7.12502
lthumb -9.07721 73.0714
rfemur -29.4802 -2.25365 21.1164
rtibia 41.44
rfoot -17.6574 -18.7684
rtoes -8.08604
lfemur -28.9497 -2.62693 -16.2831
ltibia 39.3417
lfoot -16.7621 13.2209
ltoes -20.0269
1227
root -0.696981 17.5624 -1.61627 7.26174 1.59068 1.09693
lowerback 14.988 5.09369 0.138371
upperback 13.7986 6.7797 -1.53544
thorax 6.68219 3.5257 -2.29415
lowerneck 5.29799 -9.15805 -7.34794
upperneck -5.39119 -12.115 13.8822
head -1.11953 -6.36342 5.52976
rclavicle -1.15693e-013 7.83212e-014
rhumerus 68.3475 18.4204 1.46119
rradius 93.8001
rwrist -80.3994
rhand -31.7059 9.14018
rfingers 7.12502
rthumb -4.96474 -20.7817
lclavicle -1.15693e-013 7.83212e-014
lhumerus 34.8406 -22.7077 45.8602
lradius 106.023
lwrist 83.4839
lhand -35.9924 43.4281
lfingers 7.12502
lthumb -9.10244 73.2117
rfemur -29.3582 -2.39583 21.0485
rtibia 41.3255
rfoot -17.6252 -18.7986
rtoes -8.29952
lfemur -28.8386 -2.66515 -16.3648
ltibia 39.1705
lfoot -16.703 13.1096
ltoes -19.901
1228
root -0.691384 17.5666 -1.6126 7.27194 1.80303 1.10091
lowerback 14.9578 5.08944 0.194288
upperback 13.7527 6.77358 -1.33843
thorax 6.6233 3.51566 -2.11628
lowerneck 5.55204 -9.27517 -7.48498
upperneck -5.44591 -12.2949 13.7296
head -1.15925 -6.45444 5.51875
rclavicle -6.83819e-014 5.24792e-014
rhumerus 68.6826 19.1929 0.870255
rradius 94.0894
rwrist -81.2184
rhand -32.9071 10.364
rfingers 7.12502
rthumb -6.12456 -19.5275
lclavicle -6.83819e-014 5.24792e-014
lhumerus 34.3581 -22.6016 44.6866
lradius 106.231
lwrist 83.7803
lhand -36.1761 43.1982
lfingers 7.12502
lthumb -9.27975 72.974
rfemur -29.2676 -2.51317 21.028
rtibia 41.1944
rfoot -17.5885 -18.9181
rtoes -8.49979
lfemur -28.7972 -2.78563 -16.376
ltibia 39.0118
lfoot -16.6274 13.0454
ltoes -19.8775
1229
root -0.685233 17.5731 -1.60757 7.31236 2.01664 1.15402
lowerback 14.8992 5.08629 0.262308
upperback 13.7253 6.7733 -1.19453
thorax 6.61048 3.51315 -1.99772
lowerneck 5.70585 -9.44149 -7.62846
upperneck -5.41746 -12.5396 13.7052
head -1.142 -6.57705 5.53655
rclavicle -1.78906e-014 1.66979e-014
rhumerus 68.9436 19.8646 0.163208
rradius 94.2492
rwrist -81.3236
rhand -33.5998 10.7544
rfingers 7.12502
rthumb -6.79328 -19.1166
lclavicle -1.78906e-014 1.66979e-014
lhumerus 34.0371 -22.5352 43.3986
lradius 106.631
lwrist 83.8722
lhand -35.9453 42.7207
lfingers 7.12502
lthumb -9.05699 72.5063
rfemur -29.1976 -2.6578 20.9486
rtibia 41.0597
rfoot -17.6097 -18.9832
rtoes -8.28243
lfemur -28.7781 -2.89885 -16.4505
ltibia 38.8527
lfoot -16.5571 12.9949
ltoes -20.1169
1230
root -0.678044 17.5802 -1.60299 7.31733 2.24258 1.16073
lowerback 14.8637 5.10339 0.444459
upperback 13.7321 6.81039 -1.04237
thorax 6.63954 3.53916 -1.93565
lowerneck 5.99161 -9.64966 -7.88246
upperneck -5.54547 -12.8342 13.9321
head -1.16134 -6.73813 5.65806
rclavicle -3.4191e-014 2.26615e-014
rhumerus 69.0599 20.4963 -0.597279
rradius 94.3266
rwrist -81.1234
rhand -34.0269 11.0274
rfingers 7.12502
rthumb -7.2055 -18.8299
lclavicle -3.4191e-014 2.26615e-014
lhumerus 33.8414 -22.5689 42.1505
lradius 106.989
lwrist 83.9059
lhand -35.1397 43.527
lfingers 7.12502
lthumb -8.27957 73.3448
rfemur -29.0959 -2.84053 20.9225
rtibia 40.9195
rfoot -17.5441 -19.0102
rtoes -8.21011
lfemur -28.7222 -2.9785 -16.4849
ltibia 38.6838
lfoot -16.4188 12.9076
ltoes -20.3109
1231
root -0.669697 17.5885 -1.59843 7.26392 2.45191 1.14234
lowerback 14.9082 5.1389 0.643556
upperback 13.7403 6.87198 -0.895968
thorax 6.63235 3.5794 -1.89835
lowerneck 6.24893 -9.83929 -7.95052
upperneck -5.74423 -13.0885 14.0003
head -1.22371 -6.87789 5.70696
rclavicle 4.37326e-014 -3.10104e-014
rhumerus 69.1079 21.1875 -1.39445
rradius 94.3948
rwrist -80.9083
rhand -34.457 11.3663
rfingers 7.12502
rthumb -7.62065 -18.4765
lclavicle 4.37326e-014 -3.10104e-014
lhumerus 33.6378 -22.6613 40.9183
lradius 107.3
lwrist 84.1044
lhand -33.9836 45.3315
lfingers 7.12502
lthumb -7.16378 75.1903
rfemur -28.9072 -3.01702 20.9337
rtibia 40.7828
rfoot -17.4582 -19.0482
rtoes -8.39391
lfemur -28.5873 -3.03223 -16.5018
ltibia 38.4995
lfoot -16.2573 12.8337
ltoes -20.4928
1232
root -0.658563 17.5966 -1.59081 7.23876 2.59538 1.19955
lowerback 14.904 5.18784 0.752674
upperback 13.736 6.9444 -0.792126
thorax 6.63204 3.61965 -1.85396
lowerneck 6.3972 -10.0164 -7.84699
upperneck -5.87549 -13.3205 13.8464
head -1.27866 -6.9973 5.65626
rclavicle 8.46823e-014 -2.94201e-014
rhumerus 69.1355 21.8666 -2.15923
rradius 94.5333
rwrist -80.6426
rhand -34.8456 11.7042
rfingers 7.12502
rthumb -7.99571 -18.1246
lclavicle 8.46823e-014 -2.94201e-014
lhumerus 33.4426 -22.775 39.6622
lradius 107.557
lwrist 84.2718
lhand -33.9859 45.2754
lfingers 7.12502
lthumb -7.16597 75.1341
rfemur -28.7393 -3.11175 20.8365
rtibia 40.6522
rfoot -17.5128 -19.1039
rtoes -8.32123
lfemur -28.4417 -3.09616 -16.604
ltibia 38.3088
lfoot -16.2036 12.7447
ltoes -20.3707
1233
root -0.645977 17.6044 -1.58176 7.24337 2.65775 1.25205
lowerback 14.8494 5.28028 0.919322
upperback 13.7278 7.08063 -0.727688
thorax 6.67097 3.69877 -1.88221
lowerneck 6.42305 -10.2516 -7.68689
upperneck -5.86525 -13.6322 13.655
head -1.27083 -7.14986 5.57164
rclavicle 5.88403e-014 -3.10104e-014
rhumerus 68.9686 22.5259 -3.0058
rradius 94.7113
rwrist -80.2584
rhand -35.1675 11.9282
rfingers 7.12502
rthumb -8.30646 -17.8885
lclavicle 5.88403e-014 -3.10104e-014
lhumerus 33.4061 -22.9622 38.3381
lradius 107.841
lwrist 84.4452
lhand -34.9487 43.6314
lfingers 7.12502
lthumb -8.09529 73.4563
rfemur -28.6334 -3.15781 20.7272
rtibia 40.529
rfoot -17.565 -19.1034
rtoes -8.33152
lfemur -28.3215 -3.10037 -16.7079
ltibia 38.1167
lfoot -16.1841 12.6761
ltoes -20.1076
1234
root -0.633706 17.6105 -1.57751 7.27248 2.75227 1.31691
lowerback 14.9382 5.3722 1.1181
upperback 13.6321 7.21742 -0.689483
thorax 6.5431 3.78111 -1.97548
lowerneck 6.51143 -10.5096 -7.60063
upperneck -5.8334 -13.9796 13.5835
head -1.24972 -7.32434 5.53568
rclavicle -1.43125e-014 -2.14687e-014
rhumerus 68.6965 23.2982 -3.94088
rradius 94.8563
rwrist -79.8714
rhand -35.5371 12.1377
rfingers 7.12502
rthumb -8.66311 -17.6645
lclavicle -1.43125e-014 -2.14687e-014
lhumerus 33.3914 -23.2198 37.014
lradius 108.167
lwrist 84.7556
lhand -35.0963 42.6623
lfingers 7.12502
lthumb -8.23771 72.4817
rfemur -28.5749 -3.22034 20.6062
rtibia 40.4125
rfoot -17.4776 -19.133
rtoes -8.61282
lfemur -28.2612 -3.11609 -16.8278
ltibia 37.9226
lfoot -16.0539 12.602
ltoes -20.1689
1235
root -0.621505 17.6165 -1.57351 7.2854 2.91084 1.31852
lowerback 15.186 5.42519 1.30621
upperback 13.4478 7.29928 -0.611925
thorax 6.22084 3.83048 -2.0404
lowerneck 6.61576 -10.7354 -7.49032
upperneck -5.74963 -14.2878 13.4489
head -1.22736 -7.47656 5.47768
rclavicle -1.74931e-014 2.70347e-014
rhumerus 68.4778 24.1764 -4.86474
rradius 95.0247
rwrist -79.5671
rhand -35.9616 12.5121
rfingers 7.12502
rthumb -9.07274 -17.2727
lclavicle -1.74931e-014 2.70347e-014
lhumerus 33.2776 -23.5334 35.7059
lradius 108.502
lwrist 85.0474
lhand -34.8026 42.2332
lfingers 7.12502
lthumb -7.95421 72.0635
rfemur -28.4871 -3.37893 20.5723
rtibia 40.3105
rfoot -17.4632 -19.1177
rtoes -8.7499
lfemur -28.1914 -3.1726 -16.8743
ltibia 37.7267
lfoot -15.9028 12.5223
ltoes -20.3344
1236
root -0.608606 17.6221 -1.56971 7.28606 3.10757 1.3217
lowerback 15.3628 5.43598 1.56527
upperback 13.311 7.33855 -0.603131
thorax 6.00935 3.86849 -2.20193
lowerneck 6.60401 -10.9469 -7.18984
upperneck -5.56522 -14.5652 13.2081
head -1.18307 -7.60804 5.35051
rclavicle -3.97569e-014 5.08889e-014
rhumerus 68.2246 24.9663 -5.92555
rradius 95.2229
rwrist -79.3377
rhand -36.4439 12.7469
rfingers 7.12502
rthumb -9.53811 -17.0172
lclavicle -3.97569e-014 5.08889e-014
lhumerus 33.2263 -23.8587 34.2019
lradius 108.781
lwrist 85.073
lhand -34.6137 41.8183
lfingers 7.12502
lthumb -7.77194 71.6555
rfemur -28.393 -3.57949 20.5348
rtibia 40.2281
rfoot -17.5308 -19.0648
rtoes -8.39677
lfemur -28.1013 -3.24803 -16.9193
ltibia 37.5084
lfoot -15.7903 12.4037
ltoes -20.2112
1237
root -0.594334 17.6265 -1.56607 7.30625 3.25235 1.44118
lowerback 15.4779 5.47014 1.71765
upperback 13.1937 7.40018 -0.635985
thorax 5.84632 3.91152 -2.34394
lowerneck 6.65419 -11.1535 -6.93864
upperneck -5.44596 -14.8337 13.0672
head -1.15851 -7.74051 5.26712
rclavicle 6.36111e-014 -3.02153e-014
rhumerus 67.9482 25.7433 -7.01839
rradius 95.381
rwrist -78.9151
rhand -36.8024 12.7704
rfingers 7.12502
rthumb -9.88404 -16.9776
lclavicle 6.36111e-014 -3.02153e-014
lhumerus 33.2084 -24.2055 32.7045
lradius 109.008
lwrist 84.9441
lhand -34.2499 41.6689
lfingers 7.12502
lthumb -7.42082 71.5188
rfemur -28.3425 -3.75785 20.36
rtibia 40.1502
rfoot -17.5245 -19.0421
rtoes -8.37047
lfemur -28.006 -3.2793 -17.0976
ltibia 37.2784
lfoot -15.77 12.2478
ltoes -19.7489
